<svg width="863" height="664" viewBox="0 0 863 664" fill="none" xmlns="http://www.w3.org/2000/svg">
<path fill-rule="evenodd" clip-rule="evenodd" d="M269 301.142C272.14 332.844 275.28 364.546 278.42 396.248C295.514 386.494 312.609 376.739 329.704 366.985V439.207V458.19C329.704 459.87 328.706 465.64 329.704 467.095C330.549 468.328 336.813 468.363 338.294 468.571C347.96 469.925 357.648 471.129 367.35 472.2C392.921 475.024 420.29 479.07 445.958 475.825C468.27 473.004 489.901 465.068 510.287 455.833C517.443 452.591 524.501 449.122 531.426 445.414C532.894 444.628 538.225 442.772 539.023 441.171C539.675 439.864 538.145 435.271 537.941 433.896C537.08 428.104 536.218 422.311 535.357 416.519L523.326 335.631L546.053 358.326C547.834 360.104 551.214 365.152 553.678 365.94C555.484 366.517 559.958 364.729 561.743 364.385C574.611 361.905 587.48 359.425 600.349 356.946C603.347 356.368 610.104 356.39 612.631 354.579C613.992 353.603 614.056 351.618 614.536 349.737C617.675 337.44 620.814 325.144 623.953 312.848C624.518 310.634 627.672 303.65 626.871 301.42C626.583 300.621 625.191 300.074 624.339 299.552C604.917 287.69 585.493 275.827 566.071 263.964C555.431 257.465 544.791 250.967 534.151 244.468C529.695 241.746 524.22 236.841 519.17 235.318C516.036 234.373 511.475 235.081 508.23 234.988C501.637 234.8 495.046 234.612 488.453 234.424C487.421 234.394 483.806 233.659 482.938 234.267C482.214 234.773 482.514 235.478 482.277 236.684C481.697 239.629 481.693 242.806 481.408 245.796C481.178 248.195 481.634 252.595 480.552 254.767C479.862 256.155 480.738 255.602 479.803 256.273C478.691 257.071 475.138 256.814 473.814 256.968C467.355 257.718 460.894 258.469 454.434 259.219C446.754 260.111 438.988 261.785 431.272 261.014C419.574 259.846 406.961 259.904 395.475 257.439C392.49 256.799 391.414 255.117 389.111 252.818C384.617 248.33 380.168 243.79 375.625 239.349C373.397 237.173 374.351 237.542 372.056 238.368C369.179 239.402 366.261 241.897 363.657 243.484C353.679 249.561 343.702 255.639 333.725 261.716L272.812 298.82C271.541 299.594 270.271 300.368 269 301.142Z" fill="#FFD85A"/>
<path fill-rule="evenodd" clip-rule="evenodd" d="M851.616 305.083C839.059 352.754 813.805 404.733 762.926 419.927C750.557 423.621 738.523 426.41 725.675 425.004C724.452 424.87 723.429 425.042 722.266 425.064C720.182 425.103 721.983 425.852 719.645 425.131C717.822 424.568 716.117 423.161 714.219 422.538C709.169 420.887 703.787 420.567 698.656 419.233C686.049 415.953 673.056 411.904 660.84 407.381C655.088 405.251 649.801 402.285 644.391 399.433C638.891 396.534 633.062 394.733 627.5 392.074C623.105 389.972 615.574 387.232 612.484 383.29C609.189 379.085 613.748 370.134 615.051 365.664C619.482 350.454 624.76 335.466 628.09 319.954C639.591 333.282 655.552 341.536 672.076 346.859C681.042 349.748 690.265 351.836 699.591 353.143C708.057 354.329 717.192 355.765 725.678 354.08C732.085 352.809 740.128 349.864 744.703 344.974C746.336 343.228 748.295 340.028 747.38 337.492C746.219 334.273 742.835 335.788 741.003 333.385C739.408 331.293 739.658 326.399 739.149 323.851C738.25 319.341 737.014 314.955 735.506 310.614C732.579 302.185 728.932 293.737 728.057 284.768C727.298 276.986 729.07 269.628 732.952 262.876C734.785 259.684 739.392 251 743.888 251.361C748.826 251.756 742.167 272.565 741.95 276.809C741.087 293.636 743.344 311.565 751.978 326.313C755.284 331.96 760.065 338.535 767.123 339.235C774.6 339.975 780.631 334.092 784.19 328.141C792.873 313.619 788.495 293.694 784.098 278.475C778.703 259.802 764.623 246.931 755.72 230.162C769.012 231.498 776.13 239.942 782.951 250.655C790.462 262.448 796.308 276.609 799.191 290.332C800.647 297.266 799.642 304.228 799.651 311.229C799.655 313.556 799.654 322.137 803.447 321.799C807.499 321.438 808.889 311.759 809.486 308.807C810.852 302.035 812.33 295.262 813.516 288.457C815.616 276.416 816.55 264.083 819.064 252.126C819.489 250.105 820.335 244.496 823.362 246.011C825.694 247.176 825.32 255.85 825.406 257.866C825.615 262.835 825.91 267.802 825.949 272.776C826.009 280.147 824.539 287.777 825.26 295.103C825.731 299.89 828.3 305.179 831.485 298.723C834.643 292.321 835.288 284.336 837.048 277.451C838.899 270.223 840.809 262.887 844.735 256.467C845.824 254.686 846.994 251.858 849.415 252.696C851.173 253.305 852.471 257.474 853.015 258.945C855.468 265.594 855.052 272.986 854.897 279.946C854.708 288.474 853.792 296.814 851.616 305.083ZM606.765 317.454C606.095 317.237 603.244 316.967 602.537 316.905C601.709 316.833 602.649 315.306 600.644 315.74C601.031 316.7 601.718 317.339 602.708 317.661C599.692 318.681 597.468 316.162 595.406 315.838C593.434 315.528 593.351 315.838 591.403 317.921C589.294 315.349 589.689 316.953 587.955 316.954C587.324 316.955 587.297 317.908 586.27 317.794C585.373 317.693 585.279 316.334 584.749 316.174C581.871 315.302 578.911 319.684 575.647 315.884C574.856 319.838 565.796 314.885 562.31 315.58C558.656 316.307 560.232 317.617 557.279 315.378C554.465 313.244 555.25 314.661 551.977 316.407C552.053 316.367 550.129 317.666 550.308 317.687C548.043 317.422 548.171 315.079 545.302 315.204C542.265 315.336 540.968 317.717 538.189 314.787C537.584 316.981 537.46 316.036 536.035 316.589C535.251 316.775 534.566 316.569 533.978 315.972C533.8 316.575 533.409 316.945 532.804 317.081C531.252 317.22 528.34 317.436 526.931 316.689C524.817 315.567 526.517 315.137 525.05 313.876C524.393 317.353 522.953 316.614 519.915 316.938C517.598 317.187 517.088 316.475 514.874 316.13C512.694 315.789 509.877 316.636 507.75 316.996C506.873 317.146 505.697 317.757 504.804 317.543C503.998 317.349 503.653 316.724 503.172 316.56C502.588 316.363 502.713 315.852 501.703 315.605C501.007 315.435 499.762 316.088 499.066 316.201C494.109 317.005 489.347 317.014 484.618 315.064C486.947 319.157 479.174 316.947 477.788 315.252C476.056 317.966 473.961 316.05 470.469 316.262C467.107 316.466 462.05 317.496 460.687 313.308C460.42 314.159 458.512 316.629 457.753 317.006C455.549 318.099 455.286 316.483 453.237 315.825C450.448 314.929 451.03 316.629 449.301 316.975C446.381 317.559 444.804 315.504 442.223 314.411C442.114 316.11 442.058 317.155 440.589 318.213C439.288 313.476 434.645 318.6 435.443 312.269C433.676 313.419 431.19 314.303 430.687 316.629C433.641 315.817 431.002 317.748 430.879 317.812C430.488 318.016 429.169 316.164 428.863 315.904C428.779 316.777 428.696 317.651 428.613 318.524C427.436 317.935 426.331 316.882 425.376 316.354C424.515 315.878 425.749 314.889 424.295 314.821C423.528 314.784 422.729 316.444 421.924 316.585C420.694 316.801 421.285 315.036 420.77 315.096C419.986 315.186 418.709 316.333 418.116 316.311C416.171 316.239 417.487 315.334 416.004 314.919C413.352 314.177 413.522 315.911 411.616 316.536C407.255 317.968 407.694 311.38 403.257 315.774C402.196 316.825 401.512 318.449 400.058 318.357C397.047 318.169 398.104 314.6 398.716 312.852C399.349 313.164 387.715 319.14 387.807 318.906C387.88 317.473 389.71 316.368 388.075 315.095C386.738 317.964 385.331 318.014 382.247 318.548C380.748 318.808 380.453 319.154 378.85 318.531C377.828 318.135 377.141 316.506 376.126 316.416C376.263 316.428 374.398 317.847 374.113 317.975C372.43 318.733 371.365 317.874 369.73 318.186C368.336 318.452 367.786 319.637 366.399 319.313C364.548 318.88 365.636 316.669 363.089 317.286C362.217 317.497 361.694 319.174 360.322 319.521C358.184 320.063 355.562 319.053 353.303 319.58C351.509 319.999 350.177 320.176 348.608 320.263C347.341 320.334 347.862 319.348 345.529 320.512L344.54 318.018C343.372 319.069 342.204 320.118 341.037 321.168C340.815 320.227 340.675 319.274 340.615 318.308C338.873 320.053 336.68 320.351 334.339 320.508C331.803 320.677 329.914 321.23 327.447 321.694C326.667 321.84 324.658 322.073 324.017 321.801C324.111 321.841 322.817 321.303 323.208 321.405C323.039 321.063 322.883 320.715 322.739 320.361C322.521 319.377 321.813 319.334 320.617 320.231C319.998 320.136 318.798 319.324 318.181 319.524C316.59 320.039 316.807 321.274 315.221 321.093C314.193 320.975 313.667 319.455 312.596 319.351C310.957 319.194 309.537 321.029 308.06 321.429C312.55 320.21 302.235 321.156 305.442 321.24C303.34 321.185 301.157 321.081 299.213 322.023C298.14 321.289 299.443 319.813 298.358 319.206C297.374 318.655 297.299 320.11 297.184 320.142C297.804 319.966 297.494 321.204 296.873 321.424C294.938 322.11 293.39 320.366 293.289 318.636C291.645 321.111 291.183 320.116 288.765 320.269C286.38 320.42 284.323 321.67 281.937 321.647C277.219 321.602 274.017 319.962 272.441 315.749C277.47 316.361 282.53 313.128 287.447 313.89C289.063 314.14 290.073 315.354 291.488 315.138C293.233 314.873 294.45 312.97 296.687 312.765C301.62 312.313 306.483 312.753 311.45 311.997C317.383 311.093 323.575 310.558 329.564 310.998C334.193 311.338 337.941 309.568 342.635 309.228C348.704 308.786 354.824 308.707 360.903 308.389C367.149 308.061 373.871 307.064 380.101 307.384C382.045 307.483 383.719 307.674 385.649 307.558C386.465 307.508 387.238 306.954 388.095 307.037C389.21 307.145 389.689 308.286 390.846 308.247C392.812 308.18 394.914 306.559 397.251 306.515C401.094 306.443 404.921 306.452 408.773 306.233C412.166 306.04 415.8 305.248 419.176 305.291C421.558 305.32 422.146 307.35 423.534 307.56C426.03 307.936 438.656 300.751 439.747 307.199C446.32 302.701 455.136 306.51 462.452 305.665C471.852 304.579 481.423 305.547 490.886 305.16C500.515 304.766 510.421 305.131 520.012 306.039C523.985 306.415 527.823 306.768 531.808 306.54C533.583 306.438 535.636 305.984 537.412 306.394C537.842 306.493 541.136 308.792 540.727 308.858C542.527 307.243 541.309 307.007 544.474 306.924C546.914 306.86 549.221 307.387 551.647 307.53C556.002 307.788 560.389 307.185 564.735 307.318C568.362 307.429 571.909 307.964 575.556 307.99C579.487 308.018 584.13 308.129 586.974 311.299C586.674 310.304 586.374 309.309 586.073 308.314C590.461 308.657 594.797 310.223 599.234 309.491C598.111 310.565 596.972 311.444 596.543 313.02C598.935 312.717 600.555 311.047 603.074 311.034C605.189 311.021 605.629 312.082 607.863 310.711C608.138 312.391 608.412 314.071 608.687 315.75C611.78 315.022 609.751 312.716 609.977 310.637C612.49 311.392 614.619 310.525 613.628 314.141C612.864 316.929 609.384 318.303 606.765 317.454ZM602.419 348.51C601.34 351.54 592.012 349.808 589.805 349.488C586.955 349.075 583.694 348.421 581.07 348.096C580.755 347.676 580.377 347.32 579.938 347.027C579.607 347.487 579.19 347.813 578.685 348.005C577.48 348.269 577.476 349.513 575.892 349.238C575.819 351.079 577.097 350.033 578.077 350.701C575.608 352.356 576.737 350.45 575.352 350.481C575.009 349.994 574.531 349.803 573.918 349.908C573.138 350.11 572.418 350.444 571.76 350.91C571.143 351.562 570.614 351.595 570.174 351.012C569.753 350.588 569.238 350.326 568.63 350.226C566.198 350.622 565.518 351.701 562.779 351.525C558.866 351.273 554.633 352.304 550.781 351.761C548.394 351.424 544.405 347.674 543.322 351.33C541.671 348.62 539.042 346.775 537.463 344.006C544.823 343.581 552.181 343.074 559.548 342.808C565.998 342.576 573.054 343.301 579.081 342.998C584.728 342.713 590.707 342.089 596.472 341.573C602.583 341.028 604.605 342.368 602.419 348.51ZM410.394 348.957C413.066 349.696 415.611 348.02 418.203 348.55C419.06 348.724 420.834 350.285 421.224 350.315C421.938 350.373 424.036 348.841 424.936 348.635C430.63 347.34 437.526 347.478 443.218 348.274C446.235 348.695 446.697 347.315 449.33 346.645C452.066 345.947 455.956 346.484 458.838 346.292C465.616 345.838 472.392 346.161 479.125 345.665C486.037 345.156 492.915 344.881 499.831 344.525C504.541 344.283 515.862 341.595 519.765 345.092C522.985 347.976 518.838 352.982 515.617 354.124C513.209 354.977 512.055 353.18 510.267 353.352C508.232 353.546 508.941 355.952 507.124 353.721C505.998 355.939 498.921 354.994 496.892 355.14C492.473 355.46 488.733 356.347 485.725 352.224C485.929 353.412 486.133 354.602 486.336 355.791C482.347 353.658 478.065 354.341 474.602 355.085C472.887 355.452 467.623 357.995 465.766 356.899C464.487 356.145 466.741 354.854 464.584 354.21C463.453 353.873 461.502 355.75 460.121 355.656C456.299 355.393 457.384 352.823 453.629 356.093C452.357 354.994 451.935 353.124 452.102 351.521C449.375 353.847 449.603 357.724 444.727 357.014C442.91 356.75 442.577 354.896 441.629 354.555C439.611 353.826 439.382 355.136 437.634 356.173C436.974 356.564 436.169 357.193 435.392 357.272C433.796 357.431 433.543 356.698 433.324 356.722C432.262 356.839 430.925 357.378 429.664 356.993C428.533 356.646 428.203 354.651 426.21 355.117C424.303 355.565 424.287 356.86 424.634 358.799C422.753 358.604 421.616 357.557 420.209 356.422C418.788 359.735 415.799 356.991 414.145 359.786C411.99 357.214 410.608 357.922 407.935 355.41C408.067 356.458 408.198 357.506 408.329 358.555C406.243 358.152 405.315 356.682 403.536 358.628C401.809 355.411 396.572 359.995 393.883 356.887C392.684 360.823 384.751 359.882 381.401 359.95C378.432 360.01 376.234 359.767 373.334 360.457C370.77 361.066 367.217 361.698 364.806 361.419C363.231 361.237 361.509 360.948 359.547 361.161C356.717 361.468 354.273 362.932 351.342 362.24C346.929 361.197 344.224 355.4 349.139 352.854C352.503 351.111 358.563 351.756 362.265 351.435C368.4 350.902 375.276 349.784 381.42 350.292C386.212 350.689 390.579 349.546 395.468 349.063C399.149 348.699 405.182 348.045 407.583 351.693C408.504 350.627 408.409 348.408 410.394 348.957ZM343.231 398.893C342.572 395.612 370.621 393.805 373.405 393.591C379.25 393.14 385.111 392.819 390.97 392.67C395.786 392.547 400.281 393.467 405.098 392.728C409.597 392.037 415.028 390.622 418.943 393.807C419.519 389.452 436.403 391.573 439.615 391.586C453.598 391.636 466.978 391.669 480.504 390.803C488.233 390.308 496.441 389.642 504.172 390.029C507.659 390.204 510.467 391.133 513.935 390.326C516.196 389.8 518.634 388.706 520.797 390.253C523.328 392.065 524.41 398.214 522.666 400.781C521.396 402.652 520.272 402.445 518.242 402.121C515.123 401.625 512.805 400.903 509.624 402.171C510.14 401.965 507.493 402.556 507.713 402.539C504.109 402.808 499.167 405.325 496.063 402.424C497.307 402.641 499.114 400.421 497.546 400.238C496.368 400.102 495.621 401.364 494.702 401.787C491.558 403.233 489.95 402.781 488.072 399.747C484.286 403.024 483.878 402.117 482.216 398.081C480.937 399.067 480.662 401.398 479.654 402.163C479.505 402.277 480.124 403.693 479.397 403.634C478.722 403.58 478.501 402.474 477.983 402.387C477.651 402.33 477.478 401.361 477.161 401.302C476.817 401.238 476.464 401.857 476.075 401.839C475.034 401.79 472.059 404.004 473.126 400.897C471.549 402.902 470.872 401.624 470.302 399.799C468.482 401.183 466.663 402.566 464.842 403.949C463.996 401.596 462.54 402.237 460.707 403.058C461.259 401.425 460.913 399.879 459.528 401.015C458.726 401.673 458.187 403.761 457.366 404.648C454.044 401.283 452.835 402.206 448.244 402.644C446.492 402.81 444.314 403.134 442.749 402.075C441.373 401.145 440.594 397.731 438.241 400.489C438.765 399.876 437.944 404.587 437.798 405.336C436.761 404.637 435.879 403.776 435.153 402.756C433.798 405.437 430.243 403.031 427.329 403.579C422.742 404.442 418.011 405.894 413.96 402.481C413.673 403.583 410.354 404.986 410.35 405.029C410.546 403.078 411.777 403.764 409.263 403.393C408.8 403.325 408.275 404.158 407.838 404.249C406.339 404.559 404.588 404.265 403.077 404.222C396.793 404.041 391.039 405.434 384.833 405.938C382.741 406.108 380.26 406.442 378.295 405.654C376.272 404.84 376.328 403.917 374.28 404.441C374.928 404.275 373.001 406.3 373.106 406.223C372.831 406.423 371.682 405.436 371.274 405.51C371.155 405.942 371.037 406.373 370.917 406.805C370.424 406.744 369.93 406.683 369.437 406.622C368.088 406.804 366.87 405.438 365.602 405.392C365.836 405.4 362.181 406.761 362.347 406.843C359.796 405.571 360.528 405.939 357.291 406.715C354.232 407.447 351.185 407.276 348.046 407.733C338.915 409.058 344.356 404.483 343.231 398.893ZM335.167 444.544C333.451 442.109 338.019 441.267 339.478 441.052C341.878 440.698 345.061 441.402 346.66 441.02C349.095 440.441 351.446 439.059 354.188 438.684C357.647 438.211 361.135 438.134 364.608 437.838C365.765 437.738 367.199 437.34 368.324 437.407C370.001 437.508 370.698 438.395 372.051 438.401C374.357 438.413 377.202 436.957 379.565 436.69C382.591 436.346 385.648 436.186 388.689 436.035C395.096 435.717 401.437 435.849 407.841 435.841C410.762 435.837 418.54 432.806 419.996 436.205C422.022 433.63 427.215 433.98 430.111 433.906C435.21 433.775 440.258 433.283 445.353 433.046C449.716 432.843 454.592 433.777 458.876 433.123C461.237 432.762 462.02 432.006 464.698 432.348C466.687 432.6 469.72 431.549 471.428 432.014C471.339 431.989 473.559 433.365 472.866 433.409C473.629 433.359 473.584 433.892 474.425 433.655C475.53 433.344 475.022 431.955 477.311 431.462C480.881 430.692 485.642 431.583 489.351 431.385C492.95 431.194 496.542 431.111 500.144 431.128C501.802 431.135 503.853 430.739 505.466 431.063C506.257 431.221 507.937 432.252 508.606 432.149C510.505 431.852 511.471 430.534 514.037 430.615C516.946 430.708 519.565 430.668 522.457 430.446C525.257 430.232 525.707 429.832 527.095 432.162C528.471 434.474 528.851 437.484 526.318 439.055C527.963 438.947 529.987 441.149 528.048 442.368C526.85 443.122 524.449 441.422 523.015 441.544C521.248 441.696 519.861 442.63 517.938 442.688C515.916 442.75 513.864 443.259 511.87 443.297C509.793 443.338 508.223 442.41 506.253 442.805C504.52 443.154 504.337 444.574 502.25 443.327C501.214 442.706 501.038 440.408 499.624 440.387C497.727 440.358 498.483 442.807 497.393 443.941C497.1 440.439 494.396 446.235 493.321 441.983C492.33 443.395 488.661 445.37 486.884 444.236C485.263 443.202 485.801 440.862 485.126 439.177C484.003 442.206 480.988 445.349 481.261 439.834C479.797 441.636 475.839 441.351 476.831 444.506C475.638 444.483 475.356 442.78 474.352 442.651C473.486 442.54 472.797 443.206 472.664 443.196C473.139 443.236 471.245 443.866 471.216 443.872C472.498 443.612 467.516 443.168 468.364 443.175C467.208 443.165 465.793 444.112 464.441 444.109C463.21 444.106 461.985 443.621 460.77 443.483C457.618 443.122 458.274 443.815 456.296 444.804C455.562 445.171 455.378 445.792 454.337 445.715C453.57 445.657 453.282 444.655 453.195 444.646C452.116 444.537 452.913 444.175 451.236 444.343C451.043 444.674 450.852 445.003 450.66 445.334C450.054 446.109 449.268 446.303 448.304 445.917C445.823 446.449 437.592 448.756 438.399 444.484C437.137 445.1 435.877 445.717 434.615 446.334C434.074 442.889 427.223 447.456 425.692 447.687C423.729 447.981 423.548 447.228 421.691 446.827C421.356 446.755 420.686 447.858 419.901 447.7C417.865 447.291 417.502 447.088 417.152 444.876C415.7 447.59 414.493 446.376 411.859 446.823C411.276 446.922 410.904 448.069 410.067 447.871C409.465 447.729 409.448 446.627 409.033 446.484C408.658 446.356 408.715 445.486 408.163 445.363C407.532 445.22 405.377 446.987 404.758 447.259C403.364 447.874 401.074 448.891 399.713 448.586C398.03 448.21 398.779 446.963 396.401 447.103C392.65 447.323 391.085 450.515 388.752 445.485C387.698 447.5 387.832 448.047 386.141 448.712C384.891 449.203 381.724 448.69 380.079 448.629C373.049 448.37 366.138 450.765 359.167 450.137C356.103 449.862 353.519 449.249 350.427 449.75C347.178 450.278 344 451.053 340.704 451.365C339.028 451.523 335.526 452.005 334.704 449.862C333.98 447.976 336.68 446.69 335.167 444.544ZM348.953 521.882C339.836 527.981 332.284 536.311 323.913 543.363C315.519 550.435 308.859 558.295 301.31 566.126C294.331 573.364 287.92 580.212 279.482 585.681C274.143 589.144 269.38 593.404 263.896 596.669C259.788 599.113 253.565 602.328 255.569 594.852C257.624 587.188 261.416 579.444 264.709 572.287C269.39 562.115 274.108 552.036 279.173 542.056C281.076 538.307 282.141 534.574 285.16 531.587C288.445 528.336 290.745 524.093 294.343 521.021C309.474 508.102 332.278 518.083 348.953 521.882ZM377.555 526.262C373.418 528.43 368.79 528.967 364.407 530.401C360.671 531.622 357.198 533.794 353.181 533.955C356.838 531.209 359.98 527.479 364.102 525.395C368.739 523.05 372.949 524.757 377.555 526.262ZM559.086 544.329C543.873 539.196 529.709 531.632 514.892 525.545C512.334 524.494 492.33 517.906 492.736 514.771C506.755 512.203 521.191 507.795 535.243 512.601C548.026 516.972 558.424 527.457 568.319 536.232C570.901 538.522 586.869 548.949 585.44 552.27C584.451 554.572 576.757 553.943 574.94 553.472C572.593 552.862 571.241 551.437 569.4 549.871C566.322 547.256 562.918 545.621 559.086 544.329ZM531.002 458.57C533.313 456.444 534.696 453.219 536.903 451.256C539.739 448.734 544.315 449.963 547.415 451.273C556.718 455.203 564.669 461.812 573.914 465.913C584.159 470.459 593.028 476.533 602.269 482.793C610.716 488.514 619.849 493.251 628.471 498.712C637.257 504.277 647.092 507.895 655.998 513.262C665.062 518.726 674.091 524.212 682.801 530.232C698.333 540.968 714.505 551.992 725.996 567.256C731.902 575.101 737.431 584 741.765 592.81C745.704 600.819 749.977 611.937 744.872 620.268C739.97 628.268 731.613 634.571 724.539 640.541C721.86 642.801 719.312 645.547 715.84 646.527C711.617 647.718 706.689 647.389 702.346 647.741C679.123 649.624 657.489 647.847 634.603 643.693C612.536 639.69 590.378 637.447 568.142 634.663C555.597 633.093 543.055 631.265 530.681 628.65C525.391 627.532 520.009 626.243 514.833 624.72C510.313 623.39 506.512 620.462 501.864 619.301C482.14 614.376 459.571 612.493 440.043 604.207C457.324 597.026 475.689 592.688 493.399 586.72C512.04 580.44 530.246 575.169 549.894 573.385C560.004 572.466 569.053 569.885 578.778 567.183C588.046 564.607 597.722 563.818 607.242 562.663C611.476 562.15 623.558 562.919 624.96 557.385C627.049 549.146 615.179 548.195 610.118 548.933C602.939 549.979 597.019 551.771 591.525 545.882C585.915 539.867 580.464 533.71 574.753 527.772C564.162 516.762 553.247 504.027 538.277 499.087C520.013 493.061 498.835 498.781 480.612 502.208C461.365 505.828 442.149 509.293 423.262 514.555C415.441 516.733 405.355 521.533 397.237 520.762C389.237 520.001 380.176 518.692 372.446 516.385C368.948 515.341 366.072 513.407 362.942 511.603C358.872 509.257 354.413 507.755 350.093 505.931C341.359 502.245 332.844 498.849 323.421 497.4C315.485 496.18 307.058 495.456 299.368 498.238C291.824 500.967 285.138 506.524 279.874 512.46C274.157 518.91 269.431 526.137 264.744 533.343C262.494 536.801 259.748 539.819 257.418 543.2C255.462 546.039 254.319 549.194 252.249 551.954C247.616 558.127 244.471 566.025 241.663 573.208C238.544 581.185 235.078 590.673 235.823 599.351C236.104 602.631 236.398 606.975 237.667 610.017C239.281 613.886 241.582 613.787 244.899 615.246C250.598 617.752 252.197 624.681 259.561 623.33C266.469 622.064 272.46 616.372 277.5 611.834C284.069 605.922 290.356 599.687 296.642 593.476C303.092 587.1 309.449 580.03 314.58 572.53C316.6 569.578 318.174 566.243 320.561 563.555C323.601 560.13 327.014 559.718 331.143 558.355C367.241 546.428 403.515 534.923 440.74 527.048C449.658 525.161 458.649 522.727 467.41 520.216C476.702 517.552 481.514 520.367 489.183 525.436C505.204 536.03 524.141 543.491 541.982 550.402C547.599 552.579 556.542 552.717 560.933 557.009C534.904 560.976 510.099 568.611 484.993 576.214C472.615 579.961 460.095 583.211 447.67 586.795C435.241 590.381 423.284 595.027 411.025 599.069C398.825 603.092 385.931 604.733 373.613 608.444C361.038 612.232 348.516 614.838 335.609 617.14C322.576 619.466 309.633 622.149 296.555 624.231C290.567 625.184 284.581 626.173 278.659 627.484C272.865 628.768 267.267 631.841 261.444 632.553C235.439 635.735 209.944 642.824 184.041 646.831C164.699 649.823 131.05 653.997 118.508 634.592C105.896 615.078 121.369 592.314 135.175 578.361C143.755 569.689 153.396 562.057 163.512 555.267C174.337 548.001 184.753 540.154 195.581 532.899C220.085 516.479 246.656 503.087 272.982 489.893C285.618 483.559 297.827 476.768 310.119 469.818C316.22 466.368 319.597 471.934 324.419 475.717C328.212 478.694 335.178 486.029 340.484 482.638C340.688 483.859 340.893 485.08 341.097 486.302C342.652 485.593 344.207 484.885 345.762 484.176C346.806 486.915 346.683 488.616 349.601 490.054C351.392 490.938 355.214 492.001 356.922 490.445C357.27 491.526 357.619 492.607 357.967 493.688C359.46 493.574 359.749 489.303 360.03 488.303C362.589 492.04 366.127 495.163 370.624 496.218C370.646 495.974 369.893 492.905 369.926 492.886C371.348 492.014 373.143 495.745 373.898 496.544C376.399 499.191 377.89 498.78 380.653 496.644C380.854 496.861 381.789 499.302 381.925 499.258C382.523 499.068 383.658 496.905 383.783 496.709C383.61 499.553 389.101 500.126 391.04 499.515C390.605 498.682 390.17 497.849 389.736 497.015C396.49 496.114 399.142 503.29 405.626 502.925C410.419 502.655 406.574 501.608 409.287 499.555C411.656 497.761 412.079 501.684 412.311 501.56C412.763 501.086 413.113 500.543 413.362 499.928C414.239 503.288 421.221 506.302 420.5 500.777C423.246 501.876 425.196 503.699 428.236 504.085C431.931 504.553 435.878 503.768 439.563 503.463C447.506 502.802 454.992 501.182 462.152 497.543C466.396 495.386 470.914 493.428 474.904 490.826C478.243 488.647 484.578 482.035 489.024 484.882C487.886 481.523 493.246 484.636 493.416 480.31C494.277 480.959 495.138 481.607 495.999 482.257C496.516 481.124 496.371 479.341 497.063 478.354C498.013 476.999 498.476 477.797 499.286 477.035C500.192 476.182 500.982 473.898 502.068 473.248C503.187 472.578 504.504 473.376 505.708 472.792C507.542 471.901 515.429 463.204 514.095 470.655C517.486 469.503 514.871 468.45 515.295 466.19C516.145 461.661 518.216 464.92 520.279 465.315C523.657 465.962 523.589 463.17 525.473 461.141C527.193 459.287 530.426 458.457 529.312 455.238C530.584 455.924 530.855 457.266 531.002 458.57ZM327.385 361.842C324.724 364.806 322.732 363.539 319.773 363.104C319.456 362.043 318.916 361.897 318.151 362.663C317.274 363.167 316.332 363.499 315.322 363.657C312.896 364.255 310.377 364.001 308.003 364.907C308.071 364.112 308.906 362.699 308.371 361.891C305.875 363.617 304.328 364.716 301.263 364.748C298.78 364.775 294.421 362.878 292.359 365.145C292.295 364.262 292.232 363.381 292.169 362.498C291.159 363 290.281 363.674 289.533 364.518C289.392 363.21 289.313 362.221 288.448 361.163C286.808 364.538 285.011 364.618 281.823 363.328C282.27 363.508 278.633 361.377 278.772 361.968C277.622 357.123 295.774 357.523 297.679 357.331C302.438 356.851 307.197 356.572 311.962 356.133C316.482 355.717 319.856 355.013 322.985 358.784C321.59 353.337 334.779 353.607 327.385 361.842ZM119.272 277.366C119.772 285.602 121.604 294.355 118.402 302.281C115.828 308.652 110.693 315.847 105.161 320.005C93.8347 328.518 84.2339 318.101 82.6575 306.653C81.0141 294.712 84.2716 280.122 94.5533 272.759C100.697 268.361 106.646 268.665 113.719 270.112C115.38 270.452 118.077 270.321 119.027 271.972C119.25 272.358 119.05 277.359 119.272 277.366ZM269.708 387.087C267.752 388.074 265.705 388.652 263.98 389.996C263.38 390.463 263.176 391.526 262.54 391.919C261.383 392.634 259.729 392.16 258.523 392.751C256.527 393.726 255.096 395.122 252.724 396.02C249.201 397.356 246.112 399.186 242.782 400.923C237.234 403.816 231.28 406.299 225.479 408.654C222.551 409.843 214.454 412.16 214.734 416.446C214.079 416.623 213.41 415.19 212.043 415.305C210.165 415.461 207.685 417.632 205.736 418.166C202.09 419.164 199.268 419.252 199.268 423.9C198.108 423.111 197.813 421.182 196.269 420.927C194.532 420.639 193.8 422.513 192.41 423.097C190.773 423.784 188.737 423.125 187.116 423.856C186.407 424.606 185.619 425.26 184.752 425.819C183.87 425.92 182.993 425.894 182.119 425.737C178.678 426.467 175.51 427.761 172.06 428.434C168.698 429.09 166.396 429.329 167.809 433.305C164.213 434.009 163.334 430.192 159.276 431.588C154.302 433.298 149.654 434.531 144.461 435.574C141.813 436.106 139.046 437.294 136.379 437.573C134.476 437.772 132.7 437.091 130.827 437.303C128.568 437.556 126.753 438.602 124.416 438.641C122.2 438.68 119.872 438.282 117.695 437.891C118.003 438.768 118.388 439.609 118.85 440.414C117.345 440.099 116.65 438.289 115.374 438.021C114.035 437.74 112.835 439.122 111.72 438.816C111.245 438.685 111.561 437.221 110.712 436.941C109.938 436.688 109.611 436.987 108.844 436.867C108.587 436.827 105.376 436.653 104.864 436.923C103.97 437.398 104.875 438.286 104.697 438.418C101.677 440.653 101.64 439.446 100.294 437.112C98.317 433.685 95.9331 435.848 92.3398 435.248C88.3355 434.579 85.1806 436.346 81.2391 436.095C76.9879 435.824 71.9919 432.643 68.2334 430.785C60.117 426.774 52.2025 422.977 45.3864 416.902C32.0617 405.025 21.2213 390.419 14.8299 373.698C7.96251 355.734 6.66121 336.999 7.21248 317.941C7.54408 306.479 8.46148 295.024 10.268 283.696C11.5118 275.904 11.7723 262.058 20.5571 258.51C22.0676 276.754 17.3017 295.345 20.3071 313.471C21.2119 318.93 23.4191 326.205 27.596 330.249C33.7803 336.234 35.227 327.582 35.7867 322.802C36.8275 313.926 38.7617 305.098 40.131 296.264C41.4992 287.433 42.4658 278.504 44.3686 269.766C45.0621 266.58 50.6564 243.249 54.7622 244.354C53.9316 261.327 51.7255 278.007 51.6387 295.043C51.6042 301.876 50.9922 309.093 51.9786 315.881C52.486 319.373 55.6671 329.624 61.138 328.769C66.2009 327.978 60.6348 320.758 60.162 317.974C58.9098 310.604 60.5061 301.435 61.6735 294.119C63.8828 280.276 68.8119 266.097 76.8686 254.529C84.0843 244.17 95.1946 234.308 108.579 236.135C114.298 236.916 118.759 238.336 121.633 243.558C123.887 247.656 132.768 252.313 127.621 257.443C122.936 262.114 115.358 258.375 110.15 257.262C103.773 255.899 96.9394 257.539 91.6066 261.275C82.4567 267.685 77.2421 279.145 75.5401 289.892C73.2461 304.384 79.3781 342.316 101.964 333.815C116.967 328.167 128.268 307.851 127.008 292.297C126.503 286.071 124.069 274.251 132.683 272.57C143.719 270.416 145.278 282.582 144.161 290.487C142.536 301.987 136.459 312.68 129.505 321.772C123.446 329.696 116.397 334.651 109.105 341.195C106.946 343.133 101.44 347.489 102.364 351.092C103.378 355.042 112.032 356.165 115.498 356.814C132.64 360.023 151.973 357.071 169.086 354.83C204.26 350.224 238.971 338.88 267.813 318.022C268.979 330.927 270.447 343.79 270.988 356.742C271.251 363.029 271.318 369.407 272.036 375.659C272.479 379.506 274.078 384.879 269.708 387.087ZM172.177 432.054C170.796 432.776 172.289 428.408 171.905 429.853C173.968 430.592 174.059 431.326 172.177 432.054ZM318.088 275.877C320.281 273.461 326.269 267.713 328.17 273.168C328.877 270.843 328.969 267.399 331.699 270.539C332.786 266.682 344.777 267.043 347.747 266.872C357.257 266.329 366.805 266.038 376.281 265.093C395.754 263.152 415.566 264.154 435.11 264.09C439.342 264.076 443.563 263.847 447.764 264.46C451.819 265.053 456.079 266.715 460.211 266.108C463.885 265.567 466.294 264.555 470.075 264.988C474.601 265.507 478.993 265.875 483.558 265.859C503.75 265.785 523.932 266.603 544.128 266.635C548.064 266.641 552.78 265.872 556.473 267.544C557.841 268.164 559.336 270.226 560.381 270.452C561.579 270.711 560.867 268.842 562.47 269.686C564.617 270.816 562.955 274.288 561.537 274.839C562.386 274.509 560.003 274.185 560.242 274.172C559.111 274.233 558.146 275.1 556.932 275.046C555.083 274.965 553.534 273.837 552.044 272.844C552.019 273.249 552.838 275.953 551.903 276.089C551.098 276.207 550.344 273.542 550.263 272.922C545.745 276.907 540.959 274.685 535.352 275.19C531.376 275.548 523.084 278.201 520.309 274.05C520.194 274.933 519.84 275.705 519.248 276.368C518.455 277.576 517.77 277.473 517.19 276.057C516.994 276.067 515.062 276.487 515.025 276.484C513.665 276.376 511.902 275.888 510.519 275.769C508.379 275.587 508.773 277.144 507.068 277.17C506.137 277.183 503.763 275.838 502.139 275.755C499.328 275.608 496.455 276.801 493.681 276.44C491.771 276.191 490.045 274.637 488.171 274.576C485.836 274.499 485.079 276.279 483.23 273.778C482.85 273.676 482.616 275.147 482.465 275.172C482.502 275.166 480.705 275.432 480.492 275.515C480.123 275.656 478.687 276.314 478.249 276.321C477.305 276.339 476.792 275.662 475.791 275.647C474.135 275.619 468.848 277.076 468.996 274.013C463.087 276.203 458.044 275.349 451.978 275.867C449.194 276.106 447.446 275.733 444.798 275.222C441.482 274.582 439.28 275.386 435.973 275.548C432.795 275.704 431.793 274.36 429.111 273.146C428.052 272.667 427.353 272.036 426.055 272.302C425.316 272.454 425.842 273.7 425.623 273.785C424.483 274.225 423.687 273.758 422.124 273.865C419.238 274.062 418.089 276.474 415.123 274.21C416.108 274.09 417.095 273.969 418.081 273.85C415.244 272.647 411.5 272.034 412.188 276.412C409.768 276.073 411.862 274.426 410.673 273.836C409.483 273.247 408.152 274.233 406.654 274.72C402.699 276.003 399.4 275.366 395.276 275.136C390.589 274.874 379.626 278.698 376.27 273.733C376.17 274.78 375.046 277.694 373.551 277.557C373.064 277.512 374.423 274.418 374.576 274.09C373.807 275.73 370.294 276.041 368.563 276.891C368.757 276.01 368.951 275.129 369.144 274.25C367.537 275.961 366.756 274.917 364.865 275.489C364.038 275.739 362.842 277.444 362.135 277.547C361.311 276.591 360.276 276.181 359.029 276.314C358.199 276.107 357.37 276.066 356.541 276.192C353.222 276.433 350.196 278.278 346.895 277.022C344.037 275.933 342.931 273.133 341.227 277.587C340.778 276.796 340.33 276.004 339.882 275.212C339.329 276.072 338.776 276.931 338.223 277.79C336.06 276.374 335.928 275.554 333.439 276.074C332.855 276.307 332.256 276.274 331.643 275.976C331.496 276.412 331.35 276.848 331.204 277.284C331.145 278.38 330.82 278.743 330.228 278.37C329.73 278.191 329.28 277.919 328.879 277.555C327.233 277.681 325.13 278.114 323.363 277.874C322.681 277.783 318.406 275.526 318.088 275.877ZM368.466 246.394C368.66 246.692 368.854 246.989 369.048 247.286C366.375 248.698 365.747 247.888 365.47 245.054C366.776 245.079 366.999 247.375 368.466 246.394ZM370.122 244.731C371.409 245.299 372.885 246.414 374.097 244.92C374.913 247.292 368.852 250.529 370.122 244.731ZM378.434 245.778C381.136 247.605 374.655 246.136 374.665 246.14C375.831 245.064 377.086 244.944 378.434 245.778ZM401.675 235.595C402.601 240.27 405.157 240.137 409.283 237.964C415.299 234.794 416.314 229.602 416.734 223.403C417.136 217.46 417.863 215.159 423.992 216.4C428.271 217.266 431.889 216.538 436.202 216.419C440.805 216.292 442.426 216.995 442.796 221.731C443.168 226.473 444.011 230.074 447.452 233.683C450.951 237.352 455.617 239.543 460.163 241.595C462.501 242.65 464.697 243.785 467.284 244.014C468.286 244.103 473.502 243.443 473.612 245.093C473.693 246.334 466.469 249.835 465.702 250.251C462.351 252.074 459.01 253.709 455.35 254.812C446.93 257.353 438.002 257.503 429.281 257.349C415.219 257.102 395.785 251.154 387.377 238.679C392.143 237.651 396.909 236.623 401.675 235.595ZM400.413 195.105C398.188 193.237 396.748 190.417 394.899 188.206C393.967 187.091 393.284 186.736 392.397 186.178C391.463 185.59 390.937 186.422 390.158 185.04C388.144 181.47 394.357 176.446 387.767 175.072C385.538 174.606 380.172 176.372 379.521 173.178C378.601 168.661 387.222 168.366 389.251 166.073C393.284 161.515 390.547 153.788 393.003 148.53C395.328 143.548 401.332 142.664 406.069 141.167C412.671 139.083 419.352 137.874 426.055 136.206C430.743 135.04 438.529 130.355 442.876 134.494C436.168 135.984 440.067 138.321 444.538 139.641C449.602 141.137 454.969 141.72 460.216 142.137C465.618 142.565 471.123 142.647 476.46 141.57C481.395 140.574 486.908 136.284 492.082 137.383C489.211 142.375 480.657 145.103 475.46 146.411C472.811 147.077 471.115 146.868 471.471 150.171C471.815 153.371 474.598 156.58 475.226 159.914C476.057 164.326 475.331 168.38 473.761 172.53C472.216 176.612 471.855 177.145 473.205 181.047C475.309 187.121 470.787 193.834 466.608 198.246C449.707 216.082 417.361 209.325 400.413 195.105ZM443.36 88.5067C443.428 88.6889 443.371 88.6198 443.36 88.5067ZM448.624 133.518C447.923 134.042 443.887 135.14 444.056 133.562C444.282 131.449 447.919 132.212 448.624 133.518ZM457.823 90.8244C456.876 90.1185 454.223 90.4086 456.163 87.7327C456.795 88.9099 457.309 89.8671 457.823 90.8244ZM394.166 73.9091C395.373 70.7724 396.71 67.8546 397.254 64.5157C397.59 62.4588 396.922 60.1097 399.798 59.7871C396.134 58.1889 396.096 51.8809 395.879 48.6112C395.582 44.1077 394.16 38.0783 396.139 33.8869C398.17 29.5814 400.911 29.6526 401.738 34.7803C402.063 36.788 400.823 37.4373 400.59 38.8355C400.13 41.6014 401.046 40.9951 402.831 38.8878C403.567 41.0296 403.849 44.248 406.847 44.1119C406.648 43.5327 405.499 42.255 405.883 41.5355C406.472 40.4305 409.352 42.1188 409.717 42.3744C412.347 44.2135 412.917 45.8923 411.041 48.2121C413.637 48.4918 411.458 50.7644 413.134 51.3572C415.691 52.2611 413.976 47.9786 413.699 47.2256C415.256 47.833 415.778 48.5263 416.763 49.7559C417.341 50.6042 417.869 51.485 418.344 52.3962C418.873 54.0593 419.963 54.4761 421.616 53.6467C424.927 54.6856 429.499 54.5233 432.467 56.3393C433.823 57.1688 434.313 58.9838 435.446 59.6729C436.72 60.449 438.427 60.0971 439.796 60.5841C439.295 61.7215 439.701 62.3373 441.011 62.4337C442.028 62.5269 443.014 62.7562 443.967 63.1207C444.679 62.5834 445.455 62.1593 446.292 61.8503C446.855 62.8421 447.65 63.0872 448.679 62.5876C451.733 63.1595 453.2 64.3147 455.141 66.0417C456.884 67.5917 455.465 67.7174 457.374 67.5802C458.141 67.5247 459.485 66.2239 461.239 66.4774C462.249 66.6743 463.223 66.9853 464.16 67.4105C465.174 68.2777 466.25 68.3866 467.388 67.7383C469.238 68.6422 469.42 70.2435 471.674 70.4624C474.168 70.7054 473.365 67.5969 475.078 71.981C477.383 67.333 478.228 74.7376 480.609 75.3356C483.075 75.9556 483.342 73.9563 485.453 76.141C486.085 76.7955 486.05 77.8774 486.76 78.5718C487.924 79.7081 489.499 79.4809 490.51 81.0309C489.946 80.1658 490.643 84.0964 490.632 83.9665C490.789 85.7009 489.248 87.6437 492.406 87.496C492.37 87.6782 490.853 89.8891 490.557 89.6388C490.485 89.3864 490.423 89.1309 490.375 88.8722C490.036 89.0178 489.886 91.1239 489.949 91.4957C490.216 91.5376 490.326 91.3386 490.277 90.8987C489.758 92.5231 490.541 93.5547 489.544 95.0964C488.906 96.0819 487.16 96.8224 486.231 97.4309C483.992 98.8992 481.801 100.372 479.617 101.934C474.523 105.579 468.82 109.974 462.406 110.734C465.628 107.571 484.162 95.6012 474.865 92.1649C473.141 91.5282 470.002 90.9249 468.199 90.7909C465.956 90.6243 463.637 91.9084 461.164 91.1072C458.179 90.1415 459.303 87.3358 457.48 86.3293C453.608 84.1938 454.523 89.2157 453.304 90.5311C452.024 89.1874 452.298 88.5339 450.277 88.4124C448.224 88.2888 447.736 90.1855 445.341 89.0041C442.042 87.3756 443.788 84.132 439.108 84.0556C439.186 83.3434 439.865 81.3535 438.972 80.7984C437.768 82.3599 438.7 84.1058 437.583 85.6087C437.023 86.3628 435.81 86.964 434.924 87.208C432.848 87.7777 432.553 88.869 432.891 85.7449C431.353 88.515 426.638 87.3756 423.833 87.097C419.274 86.6435 414.427 85.7805 410.056 84.3184C406.013 82.9653 403.854 80.6413 400.519 78.5268C399.258 77.7266 398.657 78.0324 396.849 77.536C395.065 77.0459 393.326 76.0959 394.166 73.9091ZM403.788 24.8601C404.476 24.4453 404.971 30.6339 404.136 31.7902C402.609 29.374 399.9 25.8299 403.788 24.8601ZM405.986 22.3915C408.2 20.388 406.662 25.5628 406.256 26.431C405.436 25.9053 404.616 25.3795 403.796 24.8538C404.842 24.2118 405.104 23.1906 405.986 22.3915ZM489.506 14.0517C509.959 18.3436 530.224 26.3661 546.627 39.5686C561.569 51.5939 572.115 68.6558 578.027 86.8048C584.164 105.643 582.102 126.543 567.501 140.961C559.81 148.555 549.652 153.137 539.972 157.608C535.334 159.749 530.558 161.534 525.902 163.627C522.557 165.13 518.475 167.534 514.659 167.117C516.605 165.069 519.43 165.027 521.786 163.774C524.633 162.26 526.958 159.354 529.412 157.278C531.849 155.217 537.252 148.726 540.996 150.297C540.476 146.84 544.416 145.235 546.191 142.955C548.069 140.543 548.204 137.722 551.663 136.933C547.947 134.025 549.085 128.541 549.893 124.584C550.928 119.522 551.406 114.875 551.814 109.724C552.548 100.438 553.14 88.6083 548.009 80.4444C546.344 77.7936 544.224 75.3576 542.739 72.6042C540.948 69.2863 541.344 66.3653 541.344 62.728C538.07 64.9273 537.38 60.4427 535.997 58.257C534.959 56.6169 533.596 55.7005 533.262 53.6372C533.018 52.1354 534.648 51.8819 533.754 50.3078C532.659 51.1352 532.222 52.4171 531.668 53.6069C530.656 53.2026 531.848 51.795 531.269 51.3373C531.252 51.3248 529.301 50.4775 529.399 50.6C528.143 49.0091 527.74 46.3688 527.124 44.4753C524.825 45.6399 525.255 45.5027 522.69 43.5568C522.238 43.2143 519.981 41.6412 519.769 41.127C518.776 38.7224 520.515 40.1467 520.029 38.6543C518.633 34.3676 510.794 35.1782 510.173 28.755C506.351 31.1817 504.894 27.7433 502.634 25.2978C500.318 22.7927 496.434 21.8291 496.642 17.8556C495.439 18.2672 494.236 18.6777 493.034 19.0872C493.659 15.4206 488.212 15.6541 486.239 13.7941C487.334 13.8077 488.423 13.8936 489.506 14.0517ZM492.621 241.151C494.517 239.456 493.941 241.712 495.161 241.454C496.204 241.233 496.41 240.444 497.41 240.202C501.532 239.206 507.692 240.458 512.026 240.243C517.045 239.995 525.648 241.037 528.04 246.909C529.481 250.446 527.282 249.243 524.86 248.98C522.981 248.777 521.312 249.157 519.453 249.138C518.533 249.279 517.618 249.266 516.706 249.095C516.26 248.802 515.998 248.389 515.916 247.857C513.33 247.466 510.583 248.996 507.719 249.072C503.897 249.174 500.499 248.441 497.595 245.86C496.44 247.581 495.654 248.434 493.577 248.627C493.523 248.632 491.495 247.815 491.181 247.734C490.766 247.626 489.714 248.498 488.913 248.249C490.335 245.985 490.542 243.01 492.621 241.151ZM753.687 261.588C754.361 259.241 754.925 256.863 755.54 254.5C764.976 265.242 773.232 279.62 776.948 293.396C779.361 302.347 783.117 318.567 771.611 323.184C762.238 326.944 757.012 313.463 754.641 306.823C749.405 292.166 749.405 276.501 753.687 261.588ZM331.549 93.2814C331.67 93.2573 325.441 96.88 327.493 93.9464C328.318 92.7672 331.444 91.9377 332.831 91.9377L331.549 93.2814ZM325.557 94.8168C324.836 95.4232 324.108 96.0222 323.374 96.6129C322.669 95.4986 321.963 94.3842 321.258 93.2699C322.648 92.6834 328.551 92.2435 325.557 94.8168ZM321.167 207.454C319.863 206.571 318.83 207.04 318.439 208.522C318.439 207.047 319.206 203.622 320.386 203.223C321.149 202.964 317.852 199.063 318.779 198.042C321.135 199.392 319.724 200.685 320.415 202.428C320.726 203.214 321.662 203.958 321.868 204.562C322.215 205.587 323.622 209.114 321.167 207.454ZM314.781 198.675C313.447 199.017 315.784 201.22 315.782 202.194C315.779 202.93 314.896 203.496 314.53 204.503C313.74 206.687 315.101 208.162 312.86 209.828C312.86 205.044 309.65 192.367 315.819 190.036C312.81 187.666 315.282 184.93 317.64 187.766C319.908 190.493 318.464 197.733 314.781 198.675ZM311.567 179.796C310.355 175.496 306.704 173.992 302.532 174.246C302.691 172.045 304.36 168.871 305.565 172.839C306.06 171.666 306.404 170.136 307.533 169.359C309.436 175.324 318.922 178.62 313.016 185.084C312.534 183.321 312.064 181.556 311.567 179.796ZM300.544 174.567C278.576 176.16 247.736 180.718 230.157 163.88C218.696 152.901 219.308 135.804 228.57 123.605C233.856 116.645 241.072 111.744 248.319 107.075C251.115 105.272 253.484 104.082 256.555 103.047C257.052 102.993 257.519 103.104 257.956 103.38C258.129 102.638 258.546 102.089 259.212 101.731C260.397 101.096 262.086 100.87 262.769 99.5527C262.04 102.027 261.666 104.574 261.398 107.133C260.806 106.444 260.215 105.755 259.624 105.066C259.13 109.727 254.273 106.906 251.373 107.488C253.284 110.132 254.65 111.092 254.814 114.586C253.391 111.959 250.416 110.232 247.651 109.386C249.153 113.829 250.214 116.466 248.702 121.338C246.875 120.295 246.752 117.79 244.536 117.19C243.952 120.095 243.848 123.318 243.099 126.138C237.425 123.55 237.979 130.52 240.257 133.969C241.468 135.804 242.064 137.928 243.144 139.689C245.796 144.009 243.781 137.548 246.729 137.855C246.067 142.412 245.837 142.866 249.172 146.202C252.426 149.456 254.114 153.971 257.595 157.029C258.603 155.74 257.018 154.392 256.879 153.16C260.119 153.703 261.635 156.951 264.749 154.074C266.107 156.721 267.577 159.635 270.829 160.179C268.68 156.092 274.958 158.863 276.568 159.444C277.79 159.884 279.977 160.233 280.449 160.403C283.102 161.361 281.282 159.642 282.892 162.783C285.256 162.069 286.149 160.108 288.976 161.765C291.275 163.112 291.281 165.421 291.806 167.786C292.354 166.239 292.907 164.693 293.513 163.167C294.13 163.427 296.719 166.275 296.437 166.289C302.496 165.991 302.281 169.753 300.544 174.567ZM269.7 97.4476C270.917 96.5941 272.402 97.7304 273.769 97.4246C275.66 97.0025 276.734 95.3823 278.847 95.2085C278.259 97.0873 277.156 96.9114 276.223 98.3871C275.905 98.8898 276.07 100.096 275.788 100.385C273.419 102.811 272.601 100.832 270.184 98.9956C270.394 101.21 270.82 101.909 268.734 102.503C266.846 103.041 263.73 101.059 262.778 99.5381C263.58 97.9315 268.244 98.4698 269.7 97.4476ZM284.773 93.9873C286.824 94.1831 284.354 100.235 281.414 94.3643C282.521 94.1234 283.641 93.9978 284.773 93.9873ZM295.321 92.8174C298.555 92.1576 309.345 89.0827 310.546 94.1182C310.761 93.9925 311.564 91.1501 311.937 91.4968C313.431 92.8865 313.598 94.7288 313.484 96.659C311.678 92.897 312.32 96.2013 311.096 95.9437C310.777 95.8756 310.289 96.4726 309.479 96.2264C308.418 95.9028 307.658 93.6459 306.988 92.8813C305.873 94.4732 304.491 96.5228 302.258 96.3846C300.677 96.2872 298.13 92.2173 300.177 96.6726C298.976 96.2757 297.584 95.3771 296.245 95.5572C294.746 95.7593 293.967 97.2392 292.562 97.478C289.447 98.0058 288.977 95.0084 286.955 93.3809C289.744 93.2185 292.566 93.3788 295.321 92.8174ZM314.891 92.7692C315.119 91.7366 317.95 91.3198 318.671 91.6476C320.43 92.4467 319.78 93.5013 319.456 95.2566C318.151 94.6387 316.845 94.0218 315.54 93.4039C317.489 96.5417 313.958 96.9973 314.891 92.7692ZM862.83 276.565C862.599 269.046 862.381 261.396 860.475 254.075C859.14 248.952 855.863 239.765 849.664 238.875C840.315 237.534 835.138 256.011 832.519 262.353C831.995 254.886 832.453 246.938 829.633 239.85C827.374 234.171 821.669 228.792 816.756 235.17C812.383 240.846 811.543 249.226 810.392 256.056C808.901 264.905 808.005 273.823 806.916 282.727C802.646 274.475 801.901 265.029 798.525 256.453C795.341 248.36 790.329 240.631 785.501 233.433C781.56 227.553 776.764 222.025 770.588 218.431C765.212 215.302 755.812 211.918 750.689 217.114C746.413 221.449 747.083 227.25 747.306 232.72C747.405 235.156 747.787 236.827 745.644 238.054C744.592 238.658 742.947 238.345 741.79 238.668C739.926 239.189 738.496 240.07 736.919 241.242C725.863 249.46 720.767 264.268 719.191 277.47C717.194 294.198 723.714 308.538 729.326 323.843C730.22 326.283 733.06 331.457 732.668 334.18C732.238 337.164 728.493 337.242 725.966 337.303C718.334 337.492 710.357 336.923 702.763 336.212C684.683 334.521 666.618 325.816 650.429 318.045C647.476 316.627 643.297 315.816 640.887 313.583C638.62 311.484 638.023 308.12 636.066 305.712C631.265 299.804 628.206 294.762 621.136 291.193C613.937 287.559 606.591 284.2 599.566 280.219C590.88 275.295 582.854 269.057 574.53 263.543C559.061 253.298 543.695 242.067 527.294 233.355C519.673 229.306 511.156 228.65 503.244 225.336C495.539 222.108 486.08 222.104 478.039 224.142C474.123 225.136 471.457 227.49 467.855 229.026C463.633 230.828 460.189 228.84 456.475 226.69C450.799 223.405 445.172 218.054 453.255 214.511C455.997 213.308 459.432 212.853 461.827 210.962C464.381 208.948 466.43 205.232 468.506 202.709C473.122 197.101 475.878 190.644 482.633 187.157C490.103 183.299 498.958 182.25 506.923 179.729C515.553 176.999 524.003 173.752 532.472 170.564C547.731 164.821 563.594 158.619 574.559 145.976C584.017 135.068 588.138 120.989 587.756 106.689C586.976 77.4554 571.316 47.7869 548.848 29.5091C521.297 7.09649 486.248 -0.377175 451.446 0.0145226C435.113 0.198851 415.622 2.33643 401.994 12.2598C390.222 20.831 388.264 35.8223 390.015 49.3548C390.726 54.8469 393.154 62.0943 389.281 66.934C387.113 69.6413 383.222 70.3116 380.303 71.9999C376.633 74.1207 373.398 76.1535 369.242 77.2752C351.588 82.0426 332.993 80.3826 314.944 80.1187C284.876 79.6788 254.056 87.8196 231.625 109.007C213.511 126.115 208.079 158.375 230.171 175.054C248.02 188.528 276.017 187.046 297.062 184.696C303.589 183.966 308.076 182.906 308.091 190.89C308.108 199.612 306.663 208.728 308.888 217.291C312.393 230.777 325.351 231.098 336.807 228.194C342.853 226.662 348.696 224.357 354.437 221.944C362.856 218.406 370.574 213.201 378.889 209.669C384.527 207.275 388.747 215.018 393.748 209.65C394.671 208.658 394.842 207.179 396.235 206.671C398.419 205.877 402.083 208.664 403.998 209.546C406.866 210.867 409.758 211.838 410.903 215.018C411.975 217.992 411.506 222.722 410.478 225.656C408.247 232.034 402.239 230.773 396.754 230.347C387.188 229.602 377.685 228.024 368.122 227.361C359.542 226.766 351.508 229.33 344.107 233.561C328.563 242.448 315.846 256.582 302.369 268.207C295.432 274.189 288.727 280.651 281.184 285.86C277.905 288.126 274.352 290.208 271.502 293.023C268.673 295.815 268.363 298.354 267.395 302.07C265.672 308.685 257.116 311.92 251.768 315.41C244.205 320.346 236.187 323.829 227.708 326.858C209.753 333.271 191.656 337.75 172.884 341.06C163.694 342.681 154.579 343.747 145.299 344.622C137.3 345.376 128.793 347.839 120.803 345.872C123.104 342.139 127.182 339.898 130.358 337.012C134.452 333.293 137.934 328.886 141.033 324.32C147.065 315.428 151.295 305.887 152.267 295.102C153.142 285.395 152.138 273.784 146.281 265.584C144.258 262.751 140.256 261.98 138.445 259.429C136.645 256.892 137.331 252.526 136.346 249.569C133.836 242.047 126.389 232.726 119.836 228.357C112.725 223.616 102.324 221.874 94.1108 224.345C78.8948 228.922 69.5483 245.182 62.5857 258.325C58.7822 250.322 65.1517 238.448 57.7215 231.894C51.4546 226.365 46.4805 237.075 44.3842 241.657C34.545 263.166 32.3106 285.979 28.1881 308.992C26.5081 307.337 27.369 303.087 27.527 301.111C27.8209 297.434 27.7937 293.827 27.801 290.134C27.8209 280.806 29.5553 271.434 28.7603 262.114C28.3011 256.727 26.5834 245.367 18.7558 247.157C12.1175 248.675 7.95937 258.01 5.87352 263.717C2.86505 271.949 2.17047 280.098 2.35771 288.794C2.56483 298.402 0.734228 307.853 0.290698 317.447C-0.571256 336.084 0.280238 354.56 5.6277 372.547C14.3843 402.001 34.5178 426.473 61.389 441.251C76.1939 449.394 92.6181 454.546 109.505 455.654C118.656 456.254 127.49 455.165 136.562 454.219C145.515 453.285 154.516 452.853 163.453 451.758C183.358 449.316 202.753 443.015 220.844 434.535C230.368 430.072 239.323 424.592 248.69 419.833C252.449 417.925 254.989 415.536 258.196 412.881C261.376 410.25 262.257 410.044 265.873 410.044C264.812 407.206 267.909 406.331 269.286 404.535C269.209 405.406 269.131 406.277 269.054 407.147C270.104 404.869 271.082 404.891 271.987 407.213C272.882 404.613 273.544 401.939 274.623 399.404C278.752 401.494 278.405 406.461 283.926 402.834C288.473 399.849 292.654 396.328 297.289 393.403C307.848 386.738 316.952 378.066 327.541 371.477C327.541 377.894 327.994 384.367 327.137 390.751C326.321 396.822 324.054 402.496 322.251 408.307C318.927 419.03 318.697 430.489 315.014 441.103C313.49 445.499 309.52 449.175 308.382 453.454C307.222 457.819 309.902 461.318 305.409 464.184C302.241 466.204 298.282 467.058 294.775 468.28C289.424 470.145 284.344 472.777 279.136 475.009C254.706 485.477 230.877 496.138 208.243 510.213C186.764 523.569 164.955 537.363 145.223 553.226C128.098 566.993 110.787 584.793 106.619 607.251C102.573 629.034 113.351 652.415 134.992 659.59C146.244 663.32 158.966 662.858 170.684 663.02C183.293 663.193 196.654 660.155 209.051 657.956C222.143 655.634 235.011 652 248.141 649.926C260.739 647.936 272.294 643.489 284.685 640.748C297.883 637.829 311.421 636.246 324.691 633.62C330.666 632.438 336.52 630.694 342.51 629.6C349.069 628.401 355.7 627.952 362.195 626.366C374.793 623.286 386.855 618.323 399.508 615.459C405.197 614.171 410.798 612.446 416.489 611.242C421.729 610.134 425.81 607.189 431.062 609.607C435.303 611.562 438.687 614.912 442.702 617.245C447.909 620.273 453.399 622.985 458.828 625.589C469.737 630.824 481.05 634.441 492.455 638.371C504.435 642.499 516.2 647.207 528.612 649.933C541.336 652.728 554.317 653.506 567.129 655.717C593.368 660.243 619.385 662.275 646.02 662.439C659.483 662.524 672.943 660.928 686.375 661.117C698.265 661.284 708.602 663.964 719.475 657.643C736.848 647.542 756.999 632.328 756.573 610.229C756.185 590.214 744.178 571.091 732.917 555.305C719.241 536.134 699.742 522.634 680.632 509.409C660.264 495.317 637.387 485.579 615.98 473.277C605.032 466.986 594.935 460.217 583.048 455.746C577.373 453.612 571.837 451.139 566.229 448.841C561.717 446.992 555.201 445.971 551.339 442.904C548.929 440.99 548.697 438.092 548.061 435.247C546.651 428.95 544.437 422.978 542.29 416.906C538.146 405.18 535.391 393.238 533.61 380.94C531.912 369.216 528.143 357.024 530.095 345.11C542.935 357.529 556.128 369.468 569.264 381.558C574.187 386.089 579.018 390.715 583.967 395.218C587.682 398.599 592.329 403.621 597.508 404.624C604.121 405.906 601.705 398.589 606.246 397.456C609.022 396.764 617.392 403.816 619.587 405.208C633.495 414.038 648.896 419.634 664.194 425.645C680.235 431.947 696.733 437.544 713.994 439.131C729.938 440.598 746.242 438.715 761.628 434.372C792.269 425.721 814.817 405.196 831.365 378.59C850.22 348.272 863.94 312.756 862.83 276.565Z" fill="black"/>
<path fill-rule="evenodd" clip-rule="evenodd" d="M394.521 210.472C394.516 210.481 394.469 210.581 394.469 210.581C394.527 210.541 394.544 210.505 394.521 210.472Z" fill="black"/>
<path fill-rule="evenodd" clip-rule="evenodd" d="M396 210.864C395.886 209.898 395.637 208.953 395.257 208.027C394.243 209.635 393.335 210.324 394.668 212.027C395.112 211.639 395.555 211.252 396 210.864Z" fill="black"/>
<path fill-rule="evenodd" clip-rule="evenodd" d="M466.658 440.705C467.792 439.498 465.808 439.043 465.054 439.027C465.129 440.322 464.487 443.426 466.259 444.027C465.834 442.855 465.967 441.748 466.658 440.705Z" fill="black"/>
<path fill-rule="evenodd" clip-rule="evenodd" d="M436.727 188.07C434.777 191.836 439.084 193.004 441.578 191.185C443.455 189.817 444.564 186.33 444.872 184.093C445.869 176.854 440.804 169.965 438.279 163.542C437.626 161.881 436.732 156.188 434.63 156.031C432.216 155.852 432.037 161.096 432.006 162.449C431.913 166.529 432.993 170.684 434.26 174.536C435.624 178.688 439.004 183.672 436.727 188.07Z" fill="black"/>
<path fill-rule="evenodd" clip-rule="evenodd" d="M446.001 172.967C453.496 179.641 459.492 168.525 458.968 161.95C458.839 160.32 457.738 154.314 454.649 156.5C453.096 157.598 454.42 161.167 453.68 162.733C450.095 170.33 446.642 158.547 444.229 157.622C441.292 156.495 440.996 160.354 441 162.417C441.008 166.512 442.956 170.255 446.001 172.967Z" fill="black"/>
<path fill-rule="evenodd" clip-rule="evenodd" d="M418.793 174.003C420.558 171.223 422.729 167.495 422.969 164.164C423.342 158.987 420.325 159.419 417.842 163.031C416.088 165.583 414.772 169.911 410.901 168.835C406.121 167.508 407.581 161.081 404.905 158.027C398.148 167.103 410.935 186.374 418.793 174.003Z" fill="black"/>
<path fill-rule="evenodd" clip-rule="evenodd" d="M428.92 201.779C431.716 202.383 439.002 202.16 436.477 197.881C433.293 192.49 422.705 200.435 428.92 201.779Z" fill="black"/>
<path fill-rule="evenodd" clip-rule="evenodd" d="M526.832 41.0268C527.343 39.5033 526.64 39.2266 525.42 38.0268C524.265 39.093 525.745 40.2147 526.832 41.0268Z" fill="black"/>
<path fill-rule="evenodd" clip-rule="evenodd" d="M578.961 316.976C580.805 317.269 581.399 316.294 580.741 314.05C577.831 313.862 577.239 314.837 578.961 316.976Z" fill="black"/>
<path fill-rule="evenodd" clip-rule="evenodd" d="M478.277 81.5768C480.31 82.5067 479.531 84.4144 479.496 86.0268C480.544 84.8883 482.66 82.807 481.799 81.1717C480.471 78.6503 477.003 80.9951 478.277 81.5768Z" fill="black"/>
<path fill-rule="evenodd" clip-rule="evenodd" d="M409 49.8415C408.69 49.2366 408.38 48.6317 408.071 48.0268C406.807 49.0403 404.857 51.7206 406.865 53.0268C407.687 52.0282 408.399 50.9664 409 49.8415Z" fill="black"/>
<path fill-rule="evenodd" clip-rule="evenodd" d="M433.403 67.6306C435.933 69.6151 434.719 63.5242 434.643 63.0268C434.267 63.7413 432.124 66.6282 433.403 67.6306Z" fill="black"/>
<path fill-rule="evenodd" clip-rule="evenodd" d="M432 64.5375C431.807 64.0343 431.612 63.5311 431.419 63.0268C430.394 63.9764 429.137 65.9157 430.831 67.0268C431.296 66.2486 431.686 65.4192 432 64.5375Z" fill="black"/>
<path fill-rule="evenodd" clip-rule="evenodd" d="M448.071 85.4535C448.278 85.6443 448.485 85.8351 448.691 86.0268C449.525 84.3432 448.576 83.0783 447 83.0268C447.112 83.9721 447.469 84.781 448.071 85.4535Z" fill="black"/>
<path fill-rule="evenodd" clip-rule="evenodd" d="M380.265 274.861C381.269 274.177 382.18 273.398 383 272.523C380.029 270.707 381.81 274.643 378.233 272.226C377.463 273.291 378.721 275.675 380.265 274.861Z" fill="black"/>
<path fill-rule="evenodd" clip-rule="evenodd" d="M505.103 440.027C506.233 438.293 506.436 438.343 504.893 437.027C503.607 439.169 503.74 438.619 505.103 440.027Z" fill="black"/>
<path fill-rule="evenodd" clip-rule="evenodd" d="M269 164.103C269.615 164.745 270.23 165.386 270.845 166.027C271.132 165.188 272.698 162.816 271.635 162.027C270.757 162.719 269.878 163.411 269 164.103Z" fill="black"/>
<path fill-rule="evenodd" clip-rule="evenodd" d="M290.874 170.449C289.892 170.285 287.544 169.569 287 170.481C288.437 171.659 291.678 170.584 290.874 170.449Z" fill="black"/>
</svg>
